ffmpeg started on 2025-06-06 at 17:37:34
Report written to "D:\Convert\FFMetrics\reports\psnr_report-6.txt"
Log level: 32
Command line:
ffmpeg -hide_banner -nostdin -i "G:\\\xc0\xed\xe8\xec\xe5\\\xce\xed\xe3\xee\xe8\xed\xe3\xe8\\!_36_\xce\xf1\xe5\xed\xfc_2024\\DreamCast\\\xcf\xee\xe2\xe5\xeb\xe8\xf2\xe5\xeb\xfc \xe4\xe5\xec\xee\xed\xee\xe2 2099\\[DC] Maou 2099 - 01_Telegram_HEVC.mkv" -i "G:\\\xc0\xed\xe8\xec\xe5\\\xce\xed\xe3\xee\xe8\xed\xe3\xe8\\!_36_\xce\xf1\xe5\xed\xfc_2024\\DreamCast\\\xcf\xee\xe2\xe5\xeb\xe8\xf2\xe5\xeb\xfc \xe4\xe5\xec\xee\xed\xee\xe2 2099\\[DC] Maou 2099 - 01_Telegram.mp4" -lavfi "[0:v]settb=AVTB,setpts=PTS-STARTPTS,format=pix_fmts=yuv420p10,fps=24000/1001,scale=1920:1080:flags=bicubic[main];[1:v]settb=AVTB,setpts=PTS-STARTPTS,format=pix_fmts=yuv420p,fps=24000/1001,scale=1920:1080:flags=bicubic[ref];[main][ref]psnr=eof_action=endall:stats_file='D\\:/Convert/FFMetrics/logs/psnr_logfile-6.txt'" -f null -
Input #0, matroska,webm, from 'G:\Аниме\Онгоинги\!_36_Осень_2024\DreamCast\Повелитель демонов 2099\[DC] Maou 2099 - 01_Telegram_HEVC.mkv':
  Metadata:
    COMPATIBLE_BRANDS: isomiso2avc1mp41
    MAJOR_BRAND     : isom
    MINOR_VERSION   : 512
    ENCODER         : Lavf61.7.100
  Duration: 00:23:46.65, start: -0.021000, bitrate: 858 kb/s
  Stream #0:0: Video: hevc (Main 10), yuv420p10le(tv, bt709, progressive), 1920x1080 [SAR 1:1 DAR 16:9], 23.98 fps, 23.98 tbr, 1k tbn (default)
      Metadata:
        HANDLER_NAME    : VideoHandler
        VENDOR_ID       : [0][0][0][0]
        ENCODER         : Lavc61.19.100 libx265
        BPS             : 660932
        DURATION        : 00:23:46.549708333
        NUMBER_OF_FRAMES: 34203
        NUMBER_OF_BYTES : 117856493
        _STATISTICS_WRITING_APP: mkvpropedit v66.0.0 ('Josie') 64-bit
        _STATISTICS_WRITING_DATE_UTC: 2025-06-02 14:19:21
        _STATISTICS_TAGS: BPS DURATION NUMBER_OF_FRAMES NUMBER_OF_BYTES
  Stream #0:1: Audio: aac (LC), 48000 Hz, stereo, fltp (default)
      Metadata:
        HANDLER_NAME    : SoundHandler
        VENDOR_ID       : [0][0][0][0]
        ENCODER         : Lavc61.19.100 aac
        BPS             : 193059
        DURATION        : 00:23:46.645000000
        NUMBER_OF_FRAMES: 66875
        NUMBER_OF_BYTES : 34428463
        _STATISTICS_WRITING_APP: mkvpropedit v66.0.0 ('Josie') 64-bit
        _STATISTICS_WRITING_DATE_UTC: 2025-06-02 14:19:21
        _STATISTICS_TAGS: BPS DURATION NUMBER_OF_FRAMES NUMBER_OF_BYTES
Input #1, mov,mp4,m4a,3gp,3g2,mj2, from 'G:\Аниме\Онгоинги\!_36_Осень_2024\DreamCast\Повелитель демонов 2099\[DC] Maou 2099 - 01_Telegram.mp4':
  Metadata:
    major_brand     : isom
    minor_version   : 512
    compatible_brands: isomiso2avc1mp41
    encoder         : Lavf61.1.100
  Duration: 00:23:46.62, start: 0.000000, bitrate: 3068 kb/s
  Stream #1:0[0x1](und): Video: h264 (High) (avc1 / 0x31637661), yuv420p(tv, bt709, progressive), 1920x1080 [SAR 1:1 DAR 16:9], 2920 kb/s, 23.98 fps, 23.98 tbr, 24k tbn (default)
      Metadata:
        handler_name    : VideoHandler
        vendor_id       : [0][0][0][0]
        encoder         : Lavc61.3.100 h264_qsv
  Stream #1:1[0x2](und): Audio: aac (HE-AACv2) (mp4a / 0x6134706D), 48000 Hz, stereo, fltp, 144 kb/s (default)
      Metadata:
        handler_name    : SoundHandler
        vendor_id       : [0][0][0][0]
Stream mapping:
  Stream #0:0 (hevc) -> settb:default
  Stream #1:0 (h264) -> settb:default
  psnr:default -> Stream #0:0 (wrapped_avframe)
  Stream #0:1 -> #0:1 (aac (native) -> pcm_s16le (native))
Output #0, null, to 'pipe:':
  Metadata:
    COMPATIBLE_BRANDS: isomiso2avc1mp41
    MAJOR_BRAND     : isom
    MINOR_VERSION   : 512
    encoder         : Lavf61.7.100
  Stream #0:0: Video: wrapped_avframe, yuv420p10le(tv, bt709, progressive), 1920x1080 [SAR 1:1 DAR 16:9], q=2-31, 200 kb/s, 23.98 fps, 23.98 tbn
      Metadata:
        encoder         : Lavc61.19.100 wrapped_avframe
  Stream #0:1: Audio: pcm_s16le, 48000 Hz, stereo, s16, 1536 kb/s (default)
      Metadata:
        HANDLER_NAME    : SoundHandler
        VENDOR_ID       : [0][0][0][0]
        _STATISTICS_TAGS: BPS DURATION NUMBER_OF_FRAMES NUMBER_OF_BYTES
        BPS             : 193059
        DURATION        : 00:23:46.645000000
        NUMBER_OF_FRAMES: 66875
        NUMBER_OF_BYTES : 34428463
        _STATISTICS_WRITING_APP: mkvpropedit v66.0.0 ('Josie') 64-bit
        _STATISTICS_WRITING_DATE_UTC: 2025-06-02 14:19:21
        encoder         : Lavc61.19.100 pcm_s16le
frame=  181 fps=0.0 q=-0.0 size=N/A time=00:00:07.54 bitrate=N/A speed=14.7x    frame=  439 fps=422 q=-0.0 size=N/A time=00:00:18.30 bitrate=N/A speed=17.6x    frame=  681 fps=437 q=-0.0 size=N/A time=00:00:28.40 bitrate=N/A speed=18.2x    frame=  921 fps=445 q=-0.0 size=N/A time=00:00:38.41 bitrate=N/A speed=18.6x    frame= 1145 fps=444 q=-0.0 size=N/A time=00:00:47.75 bitrate=N/A speed=18.5x    frame= 1359 fps=438 q=-0.0 size=N/A time=00:00:56.68 bitrate=N/A speed=18.3x    frame= 1576 fps=437 q=-0.0 size=N/A time=00:01:05.73 bitrate=N/A speed=18.2x    frame= 1835 fps=444 q=-0.0 size=N/A time=00:01:16.53 bitrate=N/A speed=18.5x    frame= 2057 fps=443 q=-0.0 size=N/A time=00:01:25.79 bitrate=N/A speed=18.5x    frame= 2276 fps=442 q=-0.0 size=N/A time=00:01:34.92 bitrate=N/A speed=18.4x    frame= 2496 fps=439 q=-0.0 size=N/A time=00:01:44.10 bitrate=N/A speed=18.3x    frame= 2709 fps=437 q=-0.0 size=N/A time=00:01:52.98 bitrate=N/A speed=18.2x    frame= 2929 fps=437 q=-0.0 size=N/A time=00:02:02.16 bitrate=N/A speed=18.2x    frame= 3176 fps=440 q=-0.0 size=N/A time=00:02:12.46 bitrate=N/A speed=18.3x    frame= 3421 fps=442 q=-0.0 size=N/A time=00:02:22.68 bitrate=N/A speed=18.5x    frame= 3705 fps=449 q=-0.0 size=N/A time=00:02:34.52 bitrate=N/A speed=18.7x    frame= 3971 fps=453 q=-0.0 size=N/A time=00:02:45.62 bitrate=N/A speed=18.9x    frame= 4245 fps=457 q=-0.0 size=N/A time=00:02:57.05 bitrate=N/A speed=19.1x    frame= 4531 fps=462 q=-0.0 size=N/A time=00:03:08.98 bitrate=N/A speed=19.3x    frame= 4801 fps=465 q=-0.0 size=N/A time=00:03:20.24 bitrate=N/A speed=19.4x    frame= 5079 fps=469 q=-0.0 size=N/A time=00:03:31.83 bitrate=N/A speed=19.5x    frame= 5358 fps=472 q=-0.0 size=N/A time=00:03:43.47 bitrate=N/A speed=19.7x    frame= 5625 fps=474 q=-0.0 size=N/A time=00:03:54.60 bitrate=N/A speed=19.8x    frame= 5904 fps=477 q=-0.0 size=N/A time=00:04:06.24 bitrate=N/A speed=19.9x    frame= 6179 fps=479 q=-0.0 size=N/A time=00:04:17.71 bitrate=N/A speed=  20x    frame= 6438 fps=480 q=-0.0 size=N/A time=00:04:28.51 bitrate=N/A speed=  20x    frame= 6703 fps=482 q=-0.0 size=N/A time=00:04:39.57 bitrate=N/A speed=20.1x    frame= 6976 fps=483 q=-0.0 size=N/A time=00:04:50.95 bitrate=N/A speed=20.1x    frame= 7253 fps=485 q=-0.0 size=N/A time=00:05:02.51 bitrate=N/A speed=20.2x    frame= 7541 fps=487 q=-0.0 size=N/A time=00:05:14.52 bitrate=N/A speed=20.3x    frame= 7820 fps=488 q=-0.0 size=N/A time=00:05:26.15 bitrate=N/A speed=20.4x    frame= 8105 fps=491 q=-0.0 size=N/A time=00:05:38.04 bitrate=N/A speed=20.5x    frame= 8362 fps=491 q=-0.0 size=N/A time=00:05:48.76 bitrate=N/A speed=20.5x    frame= 8641 fps=492 q=-0.0 size=N/A time=00:06:00.40 bitrate=N/A speed=20.5x    frame= 8927 fps=494 q=-0.0 size=N/A time=00:06:12.33 bitrate=N/A speed=20.6x    frame= 9208 fps=496 q=-0.0 size=N/A time=00:06:24.05 bitrate=N/A speed=20.7x    frame= 9486 fps=497 q=-0.0 size=N/A time=00:06:35.64 bitrate=N/A speed=20.7x    frame= 9739 fps=496 q=-0.0 size=N/A time=00:06:46.19 bitrate=N/A speed=20.7x    frame=10010 fps=497 q=-0.0 size=N/A time=00:06:57.50 bitrate=N/A speed=20.7x    frame=10270 fps=498 q=-0.0 size=N/A time=00:07:08.34 bitrate=N/A speed=20.8x    frame=10516 fps=497 q=-0.0 size=N/A time=00:07:18.60 bitrate=N/A speed=20.7x    frame=10702 fps=494 q=-0.0 size=N/A time=00:07:26.36 bitrate=N/A speed=20.6x    frame=10840 fps=488 q=-0.0 size=N/A time=00:07:32.11 bitrate=N/A speed=20.4x    frame=11063 fps=487 q=-0.0 size=N/A time=00:07:41.41 bitrate=N/A speed=20.3x    frame=11281 fps=486 q=-0.0 size=N/A time=00:07:50.51 bitrate=N/A speed=20.3x    frame=11494 fps=484 q=-0.0 size=N/A time=00:07:59.39 bitrate=N/A speed=20.2x    frame=11757 fps=485 q=-0.0 size=N/A time=00:08:10.36 bitrate=N/A speed=20.2x    frame=11985 fps=484 q=-0.0 size=N/A time=00:08:19.87 bitrate=N/A speed=20.2x    frame=12158 fps=481 q=-0.0 size=N/A time=00:08:27.08 bitrate=N/A speed=20.1x    frame=12369 fps=479 q=-0.0 size=N/A time=00:08:35.89 bitrate=N/A speed=  20x    frame=12626 fps=479 q=-0.0 size=N/A time=00:08:46.60 bitrate=N/A speed=  20x    frame=12862 fps=479 q=-0.0 size=N/A time=00:08:56.45 bitrate=N/A speed=  20x    frame=13093 fps=479 q=-0.0 size=N/A time=00:09:06.08 bitrate=N/A speed=  20x    frame=13327 fps=478 q=-0.0 size=N/A time=00:09:15.84 bitrate=N/A speed=19.9x    frame=13583 fps=478 q=-0.0 size=N/A time=00:09:26.52 bitrate=N/A speed=  20x    frame=13844 fps=479 q=-0.0 size=N/A time=00:09:37.41 bitrate=N/A speed=  20x    frame=14094 fps=479 q=-0.0 size=N/A time=00:09:47.83 bitrate=N/A speed=  20x    frame=14345 fps=479 q=-0.0 size=N/A time=00:09:58.30 bitrate=N/A speed=  20x    frame=14569 fps=478 q=-0.0 size=N/A time=00:10:07.64 bitrate=N/A speed=19.9x    frame=14812 fps=478 q=-0.0 size=N/A time=00:10:17.78 bitrate=N/A speed=19.9x    frame=15063 fps=478 q=-0.0 size=N/A time=00:10:28.25 bitrate=N/A speed=  20x    frame=15324 fps=479 q=-0.0 size=N/A time=00:10:39.13 bitrate=N/A speed=  20x    frame=15548 fps=478 q=-0.0 size=N/A time=00:10:48.48 bitrate=N/A speed=19.9x    frame=15816 fps=479 q=-0.0 size=N/A time=00:10:59.65 bitrate=N/A speed=  20x    frame=16076 fps=479 q=-0.0 size=N/A time=00:11:10.50 bitrate=N/A speed=  20x    frame=16345 fps=480 q=-0.0 size=N/A time=00:11:21.72 bitrate=N/A speed=  20x    frame=16591 fps=480 q=-0.0 size=N/A time=00:11:31.98 bitrate=N/A speed=  20x    frame=16839 fps=480 q=-0.0 size=N/A time=00:11:42.32 bitrate=N/A speed=  20x    frame=17109 fps=480 q=-0.0 size=N/A time=00:11:53.58 bitrate=N/A speed=  20x    frame=17372 fps=481 q=-0.0 size=N/A time=00:12:04.55 bitrate=N/A speed=20.1x    frame=17582 fps=480 q=-0.0 size=N/A time=00:12:13.31 bitrate=N/A speed=  20x    frame=17817 fps=480 q=-0.0 size=N/A time=00:12:23.11 bitrate=N/A speed=  20x    frame=18042 fps=479 q=-0.0 size=N/A time=00:12:32.50 bitrate=N/A speed=  20x    frame=18304 fps=479 q=-0.0 size=N/A time=00:12:43.42 bitrate=N/A speed=  20x    frame=18529 fps=479 q=-0.0 size=N/A time=00:12:52.81 bitrate=N/A speed=  20x    frame=18820 fps=480 q=-0.0 size=N/A time=00:13:04.95 bitrate=N/A speed=  20x    frame=19079 fps=480 q=-0.0 size=N/A time=00:13:15.75 bitrate=N/A speed=  20x    frame=19353 fps=481 q=-0.0 size=N/A time=00:13:27.18 bitrate=N/A speed=  20x    frame=19621 fps=481 q=-0.0 size=N/A time=00:13:38.35 bitrate=N/A speed=20.1x    frame=19898 fps=482 q=-0.0 size=N/A time=00:13:49.91 bitrate=N/A speed=20.1x    frame=20173 fps=483 q=-0.0 size=N/A time=00:14:01.38 bitrate=N/A speed=20.1x    frame=20457 fps=483 q=-0.0 size=N/A time=00:14:13.22 bitrate=N/A speed=20.2x    frame=20727 fps=484 q=-0.0 size=N/A time=00:14:24.48 bitrate=N/A speed=20.2x    frame=20955 fps=483 q=-0.0 size=N/A time=00:14:33.99 bitrate=N/A speed=20.2x    frame=21200 fps=483 q=-0.0 size=N/A time=00:14:44.21 bitrate=N/A speed=20.2x    frame=21467 fps=484 q=-0.0 size=N/A time=00:14:55.35 bitrate=N/A speed=20.2x    frame=21738 fps=484 q=-0.0 size=N/A time=00:15:06.65 bitrate=N/A speed=20.2x    frame=21989 fps=484 q=-0.0 size=N/A time=00:15:17.12 bitrate=N/A speed=20.2x    frame=22238 fps=484 q=-0.0 size=N/A time=00:15:27.50 bitrate=N/A speed=20.2x    frame=22492 fps=484 q=-0.0 size=N/A time=00:15:38.10 bitrate=N/A speed=20.2x    frame=22772 fps=485 q=-0.0 size=N/A time=00:15:49.78 bitrate=N/A speed=20.2x    frame=23058 fps=486 q=-0.0 size=N/A time=00:16:01.71 bitrate=N/A speed=20.3x    frame=23340 fps=486 q=-0.0 size=N/A time=00:16:13.47 bitrate=N/A speed=20.3x    frame=23613 fps=487 q=-0.0 size=N/A time=00:16:24.85 bitrate=N/A speed=20.3x    frame=23853 fps=487 q=-0.0 size=N/A time=00:16:34.86 bitrate=N/A speed=20.3x    frame=24126 fps=487 q=-0.0 size=N/A time=00:16:46.25 bitrate=N/A speed=20.3x    frame=24395 fps=487 q=-0.0 size=N/A time=00:16:57.47 bitrate=N/A speed=20.3x    frame=24663 fps=488 q=-0.0 size=N/A time=00:17:08.65 bitrate=N/A speed=20.3x    frame=24941 fps=488 q=-0.0 size=N/A time=00:17:20.24 bitrate=N/A speed=20.4x    frame=25215 fps=489 q=-0.0 size=N/A time=00:17:31.67 bitrate=N/A speed=20.4x    frame=25460 fps=489 q=-0.0 size=N/A time=00:17:41.89 bitrate=N/A speed=20.4x    frame=25725 fps=489 q=-0.0 size=N/A time=00:17:52.94 bitrate=N/A speed=20.4x    frame=25982 fps=489 q=-0.0 size=N/A time=00:18:03.66 bitrate=N/A speed=20.4x    frame=26246 fps=489 q=-0.0 size=N/A time=00:18:14.67 bitrate=N/A speed=20.4x    frame=26533 fps=490 q=-0.0 size=N/A time=00:18:26.64 bitrate=N/A speed=20.4x    frame=26806 fps=490 q=-0.0 size=N/A time=00:18:38.03 bitrate=N/A speed=20.4x    frame=27040 fps=490 q=-0.0 size=N/A time=00:18:47.79 bitrate=N/A speed=20.4x    frame=27306 fps=490 q=-0.0 size=N/A time=00:18:58.88 bitrate=N/A speed=20.4x    frame=27586 fps=490 q=-0.0 size=N/A time=00:19:10.56 bitrate=N/A speed=20.5x    frame=27840 fps=491 q=-0.0 size=N/A time=00:19:21.16 bitrate=N/A speed=20.5x    frame=28126 fps=491 q=-0.0 size=N/A time=00:19:33.08 bitrate=N/A speed=20.5x    frame=28406 fps=492 q=-0.0 size=N/A time=00:19:44.76 bitrate=N/A speed=20.5x    frame=28670 fps=492 q=-0.0 size=N/A time=00:19:55.77 bitrate=N/A speed=20.5x    frame=28947 fps=492 q=-0.0 size=N/A time=00:20:07.33 bitrate=N/A speed=20.5x    frame=29230 fps=493 q=-0.0 size=N/A time=00:20:19.13 bitrate=N/A speed=20.5x    frame=29496 fps=493 q=-0.0 size=N/A time=00:20:30.22 bitrate=N/A speed=20.6x    frame=29759 fps=493 q=-0.0 size=N/A time=00:20:41.19 bitrate=N/A speed=20.6x    frame=30046 fps=493 q=-0.0 size=N/A time=00:20:53.16 bitrate=N/A speed=20.6x    frame=30306 fps=494 q=-0.0 size=N/A time=00:21:04.01 bitrate=N/A speed=20.6x    frame=30576 fps=494 q=-0.0 size=N/A time=00:21:15.27 bitrate=N/A speed=20.6x    frame=30775 fps=493 q=-0.0 size=N/A time=00:21:23.57 bitrate=N/A speed=20.6x    frame=31022 fps=493 q=-0.0 size=N/A time=00:21:33.91 bitrate=N/A speed=20.6x    frame=31299 fps=493 q=-0.0 size=N/A time=00:21:45.42 bitrate=N/A speed=20.6x    frame=31583 fps=494 q=-0.0 size=N/A time=00:21:57.27 bitrate=N/A speed=20.6x    frame=31845 fps=494 q=-0.0 size=N/A time=00:22:08.20 bitrate=N/A speed=20.6x    frame=32076 fps=493 q=-0.0 size=N/A time=00:22:17.83 bitrate=N/A speed=20.6x    frame=32340 fps=493 q=-0.0 size=N/A time=00:22:28.84 bitrate=N/A speed=20.6x    frame=32610 fps=494 q=-0.0 size=N/A time=00:22:40.10 bitrate=N/A speed=20.6x    frame=32868 fps=494 q=-0.0 size=N/A time=00:22:50.86 bitrate=N/A speed=20.6x    frame=33160 fps=494 q=-0.0 size=N/A time=00:23:03.04 bitrate=N/A speed=20.6x    frame=33415 fps=494 q=-0.0 size=N/A time=00:23:13.68 bitrate=N/A speed=20.6x    frame=33684 fps=494 q=-0.0 size=N/A time=00:23:24.90 bitrate=N/A speed=20.6x    frame=33942 fps=495 q=-0.0 size=N/A time=00:23:35.70 bitrate=N/A speed=20.6x    [Parsed_psnr_10 @ 0000022200818e40] PSNR y:49.800400 u:51.494902 v:50.836785 average:50.206297 min:40.403012 max:inf
[out#0/null @ 0000022273b24500] video:14697KiB audio:267500KiB subtitle:0KiB other streams:0KiB global headers:0KiB muxing overhead: unknown
frame=34203 fps=495 q=-0.0 Lsize=N/A time=00:23:46.55 bitrate=N/A speed=20.7x    
